<?xml version="1.0" encoding="UTF-8"?>
<svg xmlns="http://www.w3.org/2000/svg" viewBox="0 0 344.0547 55.8682">
  <g id="b" data-name="Casa Santos">
    <g>
      <path d="M37.6299,44.6367c0,3.6484-5.7598,11.2314-16.7988,11.2314C7.6797,55.8682,0,45.1172,0,31.0059,0,13.9189,11.6152,0,24.8623,0c7.2959,0,13.4395,4.0322,13.4395,10.752,0,4.3193-2.6885,6.9111-5.8555,6.9111-1.248,0-2.0166-.3838-2.0166-1.4395,0-.96.4805-2.1123.4805-4.0322,0-3.9355-2.4961-7.2949-7.1035-7.2949C15.6475,4.8965,7.2002,15.8389,7.2002,29.4707c0,11.2305,5.6631,20.4463,15.7422,20.4463,9.5996,0,12.3838-7.3916,13.5352-7.3916.3838,0,1.1523.6719,1.1523,2.1113Z" fill="#fff"/>
      <path d="M62.7822,49.4365c-1.8232,3.2637-4.9912,5.9521-9.8867,5.9521-5.7598,0-11.7119-4.0322-11.7119-14.3037,0-11.9023,7.7754-22.1738,17.1836-22.1738,4.9912,0,9.3105,2.8799,9.3105,8.2549,0,1.0566-.1914,1.9199-.3838,2.5918,1.3438.0967,2.0156.96,2.0156,3.7441,0,3.3594-.96,5.5674-.96,9.6953,0,9.0234,4.5117,8.1592,4.5117,9.6953,0,1.0557-1.1514,2.1123-3.167,2.1123-3.4561,0-5.8555-2.208-6.9121-5.5684ZM62.7822,33.3096c-.96,0-1.6318-.5752-1.6318-1.3438,0-.7676.8643-1.6318.8643-3.9355,0-2.8799-1.8242-4.3193-4.1279-4.3193-5.376,0-10.2715,7.583-10.2715,16.127,0,6.9111,3.168,10.3672,6.7197,10.3672,4.2236,0,8.0635-4.6084,8.4473-16.8955Z" fill="#fff"/>
      <path d="M81.3096,41.1816c0,.4795-.1914.96-.1914,1.9199,0,4.127,2.7832,7.7754,7.4873,7.7754,3.7432,0,6.0479-2.208,6.0479-5.0879,0-7.8711-16.7988-6.0479-16.7988-17.0869,0-5.1836,4.127-9.791,11.3271-9.791,5.2793,0,10.1748,3.168,10.1748,7.6797,0,2.4951-1.9199,4.0312-3.8398,4.0312-.2881,0-.7676-.1914-.8633-.5762-.1924-4.7031-3.7441-6.623-6.3359-6.623-2.6875,0-4.7041,1.8232-4.7041,4.1279,0,6.9111,17.0869,5.375,17.0869,16.9902,0,6.2393-4.8955,11.0391-12.8633,11.0391s-12.4785-4.6074-12.4785-10.1748c0-2.9756,2.3037-5.0879,4.7031-5.0879.8643,0,1.248.2881,1.248.8643Z" fill="#fff"/>
      <path d="M126.1396,49.4365c-1.8232,3.2637-4.9912,5.9521-9.8867,5.9521-5.7598,0-11.7119-4.0322-11.7119-14.3037,0-11.9023,7.7754-22.1738,17.1836-22.1738,4.9912,0,9.3105,2.8799,9.3105,8.2549,0,1.0566-.1914,1.9199-.3838,2.5918,1.3438.0967,2.0156.96,2.0156,3.7441,0,3.3594-.96,5.5674-.96,9.6953,0,9.0234,4.5117,8.1592,4.5117,9.6953,0,1.0557-1.1514,2.1123-3.167,2.1123-3.4561,0-5.8555-2.208-6.9121-5.5684ZM126.1396,33.3096c-.96,0-1.6318-.5752-1.6318-1.3438,0-.7676.8643-1.6318.8643-3.9355,0-2.8799-1.8242-4.3193-4.1279-4.3193-5.376,0-10.2715,7.583-10.2715,16.127,0,6.9111,3.168,10.3672,6.7197,10.3672,4.2236,0,8.0635-4.6084,8.4473-16.8955Z" fill="#fff"/>
      <path d="M162.8105,34.3662c0,1.0557-1.9199,1.9199-1.9199,6.0469,0,5.9521,4.2236,10.2715,10.8477,10.2715,5.8555,0,10.5596-3.4561,10.5596-9.3115,0-13.4385-24.8623-10.9424-24.8623-27.166,0-8.6387,7.2949-14.207,15.9346-14.207,8.8311,0,13.9189,5.2803,13.9189,10.5596,0,3.6475-2.3994,4.7041-4.8955,4.7041-.6719,0-1.0557-.5762-1.1523-1.3447-.4795-5.2793-3.6475-8.8311-9.0234-8.8311-5.2793,0-8.4473,3.5518-8.4473,7.584,0,11.5186,25.1504,9.2148,25.1504,26.4941,0,8.8311-6.5273,16.7021-18.5264,16.7021-10.4639,0-16.9912-6.0479-16.9912-13.7266,0-5.4717,3.5518-9.1191,7.0078-9.1191,1.5361,0,2.3994.6719,2.3994,1.3438Z" fill="#fff"/>
      <path d="M214.6494,49.4365c-1.8232,3.2637-4.9912,5.9521-9.8867,5.9521-5.7598,0-11.7119-4.0322-11.7119-14.3037,0-11.9023,7.7754-22.1738,17.1836-22.1738,4.9912,0,9.3105,2.8799,9.3105,8.2549,0,1.0566-.1914,1.9199-.3838,2.5918,1.3438.0967,2.0156.96,2.0156,3.7441,0,3.3594-.96,5.5674-.96,9.6953,0,9.0234,4.5117,8.1592,4.5117,9.6953,0,1.0557-1.1514,2.1123-3.167,2.1123-3.4561,0-5.8555-2.208-6.9121-5.5684ZM214.6494,33.3096c-.96,0-1.6318-.5752-1.6318-1.3438,0-.7676.8643-1.6318.8643-3.9355,0-2.8799-1.8242-4.3193-4.1279-4.3193-5.376,0-10.2715,7.583-10.2715,16.127,0,6.9111,3.168,10.3672,6.7197,10.3672,4.2236,0,8.0635-4.6084,8.4473-16.8955Z" fill="#fff"/>
      <path d="M237.4014,28.7979c2.7842-5.2793,6.7197-9.8867,12.1914-9.8867,5.0879,0,7.7754,3.4561,7.7754,8.543,0,4.7041-2.0156,11.999-2.0156,15.8389,0,8.832,3.7432,8.3516,3.7432,9.5039,0,1.3438-1.4395,2.5918-3.5518,2.5918-4.6074,0-6.623-4.6084-6.623-10.1758s2.0156-11.4229,2.0156-15.6465c0-3.5518-1.4395-4.9922-3.168-4.9922-5.375,0-11.9023,11.5195-11.9023,25.5342,0,1.7285.0957,2.4961.0957,3.3604,0,1.6318-.5762,2.0156-1.6318,2.0156-2.5918,0-5.1836-2.4961-5.1836-7.583,0-4.1279,1.7275-15.167,1.7275-19.1992,0-4.8955-1.6318-6.0479-1.6318-7.583,0-.96,1.0557-1.3438,2.208-1.3438,3.168,0,5.376,3.5518,5.9512,9.0225Z" fill="#fff"/>
      <path d="M270.7129,7.9678c.1914-1.1523.6719-2.0156,1.248-2.0156,1.6318,0,4.0312,2.0156,4.0312,4.0312,0,2.4004-1.6318,6.7197-2.4961,11.1357,5.0879-.3838,7.8721-2.1123,8.3516-2.1123.8643,0,1.5361,1.5361,1.5361,3.0723,0,3.4551-5.0879,4.2236-10.9434,4.2236-.5762,4.2236-1.1523,9.6953-1.1523,13.8232,0,6.0469,1.248,10.1748,5.4717,10.1748,3.6484,0,4.6084-3.168,5.376-3.168.8643,0,1.0557,1.0557,1.0557,1.8242,0,3.0713-2.9756,6.5273-8.1592,6.5273-5.9512,0-9.9834-4.416-9.9834-14.207,0-5.0879.5762-10.8467,1.1523-15.3584-2.4961-.5762-3.9355-1.9199-3.9355-2.8799,0-.6719.3838-.96.7676-1.248,3.5518-2.208,6.8154-8.6396,7.6797-13.8232Z" fill="#fff"/>
      <path d="M307.96,21.2148c3.7432,1.4395,6.9111,6.5273,6.9111,13.7266,0,12.1914-6.2393,20.7354-15.7422,20.7354-7.8721,0-13.7275-6.1436-13.7275-16.0312,0-11.9033,7.6797-20.7344,16.127-20.7344,2.5918,0,4.9912.7676,6.4316,2.3037ZM307.2881,27.5508c-.3838.1914-.8643.2881-1.248.2881-1.248,0-.8643-4.3203-4.8955-4.3203-4.7998,0-8.9277,7.1035-8.9277,15.3594,0,6.4316,2.9756,11.6152,8.0635,11.6152,4.9922,0,8.7354-5.9521,8.7354-14.4951,0-3.2637-.6719-6.1436-1.7275-8.4473Z" fill="#fff"/>
      <path d="M324.6641,41.1816c0,.4795-.1914.96-.1914,1.9199,0,4.127,2.7832,7.7754,7.4873,7.7754,3.7432,0,6.0479-2.208,6.0479-5.0879,0-7.8711-16.7988-6.0479-16.7988-17.0869,0-5.1836,4.127-9.791,11.3271-9.791,5.2793,0,10.1748,3.168,10.1748,7.6797,0,2.4951-1.9199,4.0312-3.8398,4.0312-.2881,0-.7676-.1914-.8633-.5762-.1924-4.7031-3.7441-6.623-6.3359-6.623-2.6875,0-4.7041,1.8232-4.7041,4.1279,0,6.9111,17.0869,5.375,17.0869,16.9902,0,6.2393-4.8955,11.0391-12.8633,11.0391s-12.4785-4.6074-12.4785-10.1748c0-2.9756,2.3037-5.0879,4.7031-5.0879.8643,0,1.248.2881,1.248.8643Z" fill="#fff"/>
    </g>
  </g>
  <g id="d" data-name="Sonne">
    <path d="M233.9103-125.7468V1.7946h-123.0921v-127.5413h123.0921ZM170.7778-106.8045c-.3586.3647.3893,9.0314.5218,10.2858,1.5929,1.7358,3.7964.8346,5.1214-.7009.9018-1.0451.1922-1.365.0566-2.3089-.1931-1.3441-.4797-6.6801-1.4508-7.2458-.2029-.1182-1.968-.7899-2.1825-.8109-.7734-.0758-.5279.4432-.9003.6005-.3309.1397-1.1245.1379-1.1662.1802ZM157.2531-82.9035c.3332-.462-1.2916-1.4257-1.6025-1.7345-1.5296-1.5191-2.8284-3.2313-4.4095-4.7462-1.2661-1.2131-6.6153-5.7269-8.1001-5.7386-.1875-.0015-.2214.5621-.4873.7739-.9696.772-1.3164-.0174-1.0592,2.0421.2469,1.9766,3.1675,4.8386,4.6287,6.2665,1.3948,1.3631,7.1444,6.4261,8.9055,6.1476l1.8785-2.1376-.9819-.6188,1.2278-.2544ZM194.7609-79.9977c1.5011-1.306,1.5647-3.432,2.4383-4.6266,1.1276-1.5421,4.2676-3.2567,5.4685-5.167.7473-1.1887,1.1292-2.7071.2946-3.9623-.5601-.388-2.8741.5991-3.5363.9249-.5972.2938-1.8119.6662-1.3865,1.4563-1.4607-.2754-2.5227.5897-3.5686,1.4909-2.0519,1.7681-5.3203,6.7593-4.4922,9.5486.4702,1.5839,3.6226,1.3441,4.7822.3352ZM178.6306-81.9061c-1.0637-.0614-2.2104.1224-3.26-.0571-2.1554-.3687-3.4541-2.4538-5.4601.2388-3.1963-1.639-6.8124.8936-8.6035,3.5559-.2116.0983.1686-.7838-.8498-.3642-2.5073,1.0331-5.7468,7.2808-6.4611,9.8904-4.4218,16.1536,10.7571,33.2053,26.6036,24.4819,3.621-1.9934,6.3935-3.6591,8.3945-7.4316,5.9942-11.3009,1.6508-24.7636-10.3356-29.0938l-.0278-1.2203ZM138.6725-63.8147c-.1659-.1355-.2425-.4512-.488-.6127-2.5548-1.6801-8.3852-1.9746-9.3182,1.6984-.1423.5603.4547,2.82.7495,3.2417,1.1288,1.615,8.0848-1.2218,9.934-.2515,1.2396-2.3888.9934-2.5479-.8773-4.0761ZM213.9203-64.1248c-1.4545-1.0308-3.1337-1.6909-4.9412-1.5865-.8202.0474-3.1806.6133-3.6765,1.2598-.3768.4911-.9621,2.4042-.8338,3.0395.6762,3.3482,9.2702,2.3492,11.2195.5176l-.0813-1.8308c-.6005-.3037-1.2529-1.0922-1.6865-1.3995ZM199.6037-30.1854c.5286.3809,2.6237,1.7165,3.0967,1.4778,2.2465-2.008,1.9572-2.2059.4529-4.451-1.9609-2.9264-6.8449-7.7406-9.6662-9.8788-.748-.5669-1.1433-1.1516-2.1432-.9548-1.8607.3661-1.1858,2.3329-2.3621,3.6058l.0768.3248c2.5336,2.0704,4.6055,4.6674,7.0116,6.8606.9378.8548,2.5578,2.3126,3.5336,3.0157ZM149.7986-41.392c-.9932.6352-1.8975.0764-2.1385.2126-.1929.109-.6852,1.154-.9762,1.4924-2.6328,3.0608-6.3412,5.0902-5.0423,9.8564.2744,1.0069.9421,1.2417,1.9796,1.2346,2.3692-.0162,3.9044-4.3074,5.3998-5.9812,1.677-1.877,6.7257-4.9986,6.2715-7.8318-.2189-1.3655-2.0107-1.2276-3.0116-.8191-.9297.3795-1.7523,1.3692-2.4823,1.8361ZM170.8271-16.6985c.7408.6498,4.1778.4658,4.3557-1.068-.353-2.622.1971-7.5619-1.1639-9.7651-.7285-1.1793-3.2177-.5692-3.9956.2985-.8689.9691-.588,3.9011-.4542,5.2072.0876.855.7962,4.9223,1.258,5.3273Z" fill="none"/>
  </g>
</svg>