<?xml version="1.0" encoding="UTF-8"?>
<svg xmlns="http://www.w3.org/2000/svg" viewBox="0 0 500 250">
  <g id="b" data-name="Casa Santos">
    <g>
      <path d="M115.2656,171.1436c0,3.6484-5.7598,11.2314-16.7988,11.2314-13.1514,0-20.8311-10.751-20.8311-24.8623,0-17.0869,11.6152-31.0059,24.8623-31.0059,7.2959,0,13.4395,4.0322,13.4395,10.752,0,4.3193-2.6885,6.9111-5.8555,6.9111-1.248,0-2.0166-.3838-2.0166-1.4395,0-.96.4805-2.1123.4805-4.0322,0-3.9355-2.4961-7.2949-7.1035-7.2949-8.1592,0-16.6064,10.9424-16.6064,24.5742,0,11.2305,5.6631,20.4463,15.7422,20.4463,9.5996,0,12.3838-7.3916,13.5352-7.3916.3838,0,1.1523.6719,1.1523,2.1113Z" fill="#1b2a2f"/>
      <path d="M140.418,175.9434c-1.8232,3.2637-4.9912,5.9521-9.8867,5.9521-5.7598,0-11.7119-4.0322-11.7119-14.3037,0-11.9023,7.7754-22.1738,17.1836-22.1738,4.9912,0,9.3105,2.8799,9.3105,8.2549,0,1.0566-.1914,1.9199-.3838,2.5918,1.3438.0967,2.0156.96,2.0156,3.7441,0,3.3594-.96,5.5674-.96,9.6953,0,9.0234,4.5117,8.1592,4.5117,9.6953,0,1.0557-1.1514,2.1123-3.167,2.1123-3.4561,0-5.8555-2.208-6.9121-5.5684ZM140.418,159.8164c-.96,0-1.6318-.5752-1.6318-1.3438,0-.7676.8643-1.6318.8643-3.9355,0-2.8799-1.8242-4.3193-4.1279-4.3193-5.376,0-10.2715,7.583-10.2715,16.127,0,6.9111,3.168,10.3672,6.7197,10.3672,4.2236,0,8.0635-4.6084,8.4473-16.8955Z" fill="#1b2a2f"/>
      <path d="M158.9453,167.6885c0,.4795-.1914.96-.1914,1.9199,0,4.127,2.7832,7.7754,7.4873,7.7754,3.7432,0,6.0479-2.208,6.0479-5.0879,0-7.8711-16.7988-6.0479-16.7988-17.0869,0-5.1836,4.127-9.791,11.3271-9.791,5.2793,0,10.1748,3.168,10.1748,7.6797,0,2.4951-1.9199,4.0312-3.8398,4.0312-.2881,0-.7676-.1914-.8633-.5762-.1924-4.7031-3.7441-6.623-6.3359-6.623-2.6875,0-4.7041,1.8232-4.7041,4.1279,0,6.9111,17.0869,5.375,17.0869,16.9902,0,6.2393-4.8955,11.0391-12.8633,11.0391s-12.4785-4.6074-12.4785-10.1748c0-2.9756,2.3037-5.0879,4.7031-5.0879.8643,0,1.248.2881,1.248.8643Z" fill="#1b2a2f"/>
      <path d="M203.7754,175.9434c-1.8232,3.2637-4.9912,5.9521-9.8867,5.9521-5.7598,0-11.7119-4.0322-11.7119-14.3037,0-11.9023,7.7754-22.1738,17.1836-22.1738,4.9912,0,9.3105,2.8799,9.3105,8.2549,0,1.0566-.1914,1.9199-.3838,2.5918,1.3438.0967,2.0156.96,2.0156,3.7441,0,3.3594-.96,5.5674-.96,9.6953,0,9.0234,4.5117,8.1592,4.5117,9.6953,0,1.0557-1.1514,2.1123-3.167,2.1123-3.4561,0-5.8555-2.208-6.9121-5.5684ZM203.7754,159.8164c-.96,0-1.6318-.5752-1.6318-1.3438,0-.7676.8643-1.6318.8643-3.9355,0-2.8799-1.8242-4.3193-4.1279-4.3193-5.376,0-10.2715,7.583-10.2715,16.127,0,6.9111,3.168,10.3672,6.7197,10.3672,4.2236,0,8.0635-4.6084,8.4473-16.8955Z" fill="#1b2a2f"/>
      <path d="M240.4463,160.873c0,1.0557-1.9199,1.9199-1.9199,6.0469,0,5.9521,4.2236,10.2715,10.8477,10.2715,5.8555,0,10.5596-3.4561,10.5596-9.3115,0-13.4385-24.8623-10.9424-24.8623-27.166,0-8.6387,7.2949-14.207,15.9346-14.207,8.8311,0,13.9189,5.2803,13.9189,10.5596,0,3.6475-2.3994,4.7041-4.8955,4.7041-.6719,0-1.0557-.5762-1.1523-1.3447-.4795-5.2793-3.6475-8.8311-9.0234-8.8311-5.2793,0-8.4473,3.5518-8.4473,7.584,0,11.5186,25.1504,9.2148,25.1504,26.4941,0,8.8311-6.5273,16.7021-18.5264,16.7021-10.4639,0-16.9912-6.0479-16.9912-13.7266,0-5.4717,3.5518-9.1191,7.0078-9.1191,1.5361,0,2.3994.6719,2.3994,1.3438Z" fill="#1b2a2f"/>
      <path d="M292.2852,175.9434c-1.8232,3.2637-4.9912,5.9521-9.8867,5.9521-5.7598,0-11.7119-4.0322-11.7119-14.3037,0-11.9023,7.7754-22.1738,17.1836-22.1738,4.9912,0,9.3105,2.8799,9.3105,8.2549,0,1.0566-.1914,1.9199-.3838,2.5918,1.3438.0967,2.0156.96,2.0156,3.7441,0,3.3594-.96,5.5674-.96,9.6953,0,9.0234,4.5117,8.1592,4.5117,9.6953,0,1.0557-1.1514,2.1123-3.167,2.1123-3.4561,0-5.8555-2.208-6.9121-5.5684ZM292.2852,159.8164c-.96,0-1.6318-.5752-1.6318-1.3438,0-.7676.8643-1.6318.8643-3.9355,0-2.8799-1.8242-4.3193-4.1279-4.3193-5.376,0-10.2715,7.583-10.2715,16.127,0,6.9111,3.168,10.3672,6.7197,10.3672,4.2236,0,8.0635-4.6084,8.4473-16.8955Z" fill="#1b2a2f"/>
      <path d="M315.0371,155.3047c2.7842-5.2793,6.7197-9.8867,12.1914-9.8867,5.0879,0,7.7754,3.4561,7.7754,8.543,0,4.7041-2.0156,11.999-2.0156,15.8389,0,8.832,3.7432,8.3516,3.7432,9.5039,0,1.3438-1.4395,2.5918-3.5518,2.5918-4.6074,0-6.623-4.6084-6.623-10.1758s2.0156-11.4229,2.0156-15.6465c0-3.5518-1.4395-4.9922-3.168-4.9922-5.375,0-11.9023,11.5195-11.9023,25.5342,0,1.7285.0957,2.4961.0957,3.3604,0,1.6318-.5762,2.0156-1.6318,2.0156-2.5918,0-5.1836-2.4961-5.1836-7.583,0-4.1279,1.7275-15.167,1.7275-19.1992,0-4.8955-1.6318-6.0479-1.6318-7.583,0-.96,1.0557-1.3438,2.208-1.3438,3.168,0,5.376,3.5518,5.9512,9.0225Z" fill="#1b2a2f"/>
      <path d="M348.3486,134.4746c.1914-1.1523.6719-2.0156,1.248-2.0156,1.6318,0,4.0312,2.0156,4.0312,4.0312,0,2.4004-1.6318,6.7197-2.4961,11.1357,5.0879-.3838,7.8721-2.1123,8.3516-2.1123.8643,0,1.5361,1.5361,1.5361,3.0723,0,3.4551-5.0879,4.2236-10.9434,4.2236-.5762,4.2236-1.1523,9.6953-1.1523,13.8232,0,6.0469,1.248,10.1748,5.4717,10.1748,3.6484,0,4.6084-3.168,5.376-3.168.8643,0,1.0557,1.0557,1.0557,1.8242,0,3.0713-2.9756,6.5273-8.1592,6.5273-5.9512,0-9.9834-4.416-9.9834-14.207,0-5.0879.5762-10.8467,1.1523-15.3584-2.4961-.5762-3.9355-1.9199-3.9355-2.8799,0-.6719.3838-.96.7676-1.248,3.5518-2.208,6.8154-8.6396,7.6797-13.8232Z" fill="#1b2a2f"/>
      <path d="M385.5957,147.7217c3.7432,1.4395,6.9111,6.5273,6.9111,13.7266,0,12.1914-6.2393,20.7354-15.7422,20.7354-7.8721,0-13.7275-6.1436-13.7275-16.0312,0-11.9033,7.6797-20.7344,16.127-20.7344,2.5918,0,4.9912.7676,6.4316,2.3037ZM384.9238,154.0576c-.3838.1914-.8643.2881-1.248.2881-1.248,0-.8643-4.3203-4.8955-4.3203-4.7998,0-8.9277,7.1035-8.9277,15.3594,0,6.4316,2.9756,11.6152,8.0635,11.6152,4.9922,0,8.7354-5.9521,8.7354-14.4951,0-3.2637-.6719-6.1436-1.7275-8.4473Z" fill="#1b2a2f"/>
      <path d="M402.2998,167.6885c0,.4795-.1914.96-.1914,1.9199,0,4.127,2.7832,7.7754,7.4873,7.7754,3.7432,0,6.0479-2.208,6.0479-5.0879,0-7.8711-16.7988-6.0479-16.7988-17.0869,0-5.1836,4.127-9.791,11.3271-9.791,5.2793,0,10.1748,3.168,10.1748,7.6797,0,2.4951-1.9199,4.0312-3.8398,4.0312-.2881,0-.7676-.1914-.8633-.5762-.1924-4.7031-3.7441-6.623-6.3359-6.623-2.6875,0-4.7041,1.8232-4.7041,4.1279,0,6.9111,17.0869,5.375,17.0869,16.9902,0,6.2393-4.8955,11.0391-12.8633,11.0391s-12.4785-4.6074-12.4785-10.1748c0-2.9756,2.3037-5.0879,4.7031-5.0879.8643,0,1.248.2881,1.248.8643Z" fill="#1b2a2f"/>
    </g>
  </g>
  <g id="c" data-name="Algarve Ruhe Entspannung">
    <g>
      <path d="M19.6143,230.5996c0-4.291,3.4658-13.499,5.1816-16.3379.3301-.5605.8584-.9902,1.1885-.9902,1.1553,0,1.7822.5283,2.2773,1.4189,1.5186,2.0137,2.1123,9.1426,3.333,13.7305.7598,2.7725,1.6836,2.6406,1.6836,3.0361,0,.4297-.6934.9248-1.5186.9248-1.5508,0-2.5742-1.123-3.333-6.2383l-.165-1.0889c-1.8154,0-4.1914-.0332-5.5117-.165-.3633,1.5176-.5615,2.9375-.5615,4.0918,0,2.1787.4297,2.4102.4297,2.7725,0,.3965-.3633.5615-.8252.5615-1.2539,0-2.1787-.5615-2.1787-1.7158ZM23.1455,223.3047c1.9473,0,3.5654-.0986,4.8193-.1973-.5615-3.4658-1.1885-6.1064-1.9473-7.4268-.8584,1.6172-2.0469,4.6543-2.8721,7.624Z" fill="#1b2a2f"/>
      <path d="M44.9922,231.4238c0,.4951-.4951.8916-1.2217.8916-1.3525,0-2.5078-1.2217-2.5078-4.1914,0-3.6309.7588-6.5352.7588-10.9248,0-3.7295-.5938-4.2578-.5938-4.5547,0-.3301.3623-.5615.8574-.5615,1.4199,0,2.3438.9248,2.3438,2.8721,0,3.7295-1.1553,8.1523-1.1553,12.4756,0,3.8613,1.5186,3.499,1.5186,3.9932Z" fill="#1b2a2f"/>
      <path d="M62.0205,231.9189c0,4.1592-1.749,7.1621-5.6768,7.1621-2.2119,0-3.9609-1.2539-3.9609-3.168,0-1.1885.8584-1.8818,1.7168-1.8818.3955,0,.6924.1328.6924.3301,0,.1328-.1318.2646-.1318.7598,0,1.5508.8916,2.4746,2.2119,2.4746,1.9141,0,3.1016-1.9473,3.1016-5.7422,0-.3965-.0322-.792-.0322-1.1221-.627.957-1.6836,1.584-3.1025,1.584-2.4756,0-4.0928-1.9473-4.0928-4.8848,0-4.0928,2.541-7.6572,5.8418-7.6572,1.9473,0,3.3994,1.2539,3.3994,2.7725,0,.3633-.0664.6602-.165.9238.2314.1982.3965.5947.3965,1.2549,0,1.2207-.1328,1.9805-.4297,3.0693.0664.7256.2314,2.8057.2314,4.125ZM59.875,224.8232c-.2637-.0332-.3955-.165-.3955-.3633,0-.4287.3623-.4951.3623-1.749,0-.7256-.627-1.2871-1.4521-1.2871-1.8809,0-3.4326,2.6074-3.4326,5.5449,0,1.9141.8584,3.5645,2.377,3.5645,1.0557,0,2.0127-.8916,2.4424-2.4424-.0332-.3965-.0664-1.0234-.0664-1.4854,0-.792.0664-1.3857.165-1.7822Z" fill="#1b2a2f"/>
      <path d="M77.9258,230.2695c-.627,1.1221-1.7158,2.0459-3.3994,2.0459-1.9805,0-4.0264-1.3857-4.0264-4.918,0-4.0928,2.6738-7.624,5.9082-7.624,1.7158,0,3.2012.9902,3.2012,2.8389,0,.3623-.0664.6602-.1318.8906.4619.0332.6924.3301.6924,1.2871,0,1.1553-.3301,1.915-.3301,3.334,0,3.1025,1.5518,2.8057,1.5518,3.333,0,.3633-.3965.7266-1.0889.7266-1.1885,0-2.0137-.7598-2.377-1.9141ZM77.9258,224.7246c-.3301,0-.5605-.1982-.5605-.4619,0-.2646.2969-.5615.2969-1.3535,0-.9902-.627-1.4854-1.4189-1.4854-1.8486,0-3.5322,2.6074-3.5322,5.5449,0,2.376,1.0898,3.5645,2.3105,3.5645,1.4521,0,2.7725-1.584,2.9043-5.8086Z" fill="#1b2a2f"/>
      <path d="M92.2803,223.4043c.8584-1.9805,2.1455-3.6309,4.0264-3.6309,1.3867,0,2.3438.8916,2.3438,2.2441,0,1.2549-.957,2.0801-1.8809,2.0801-.3301,0-.5615-.1328-.5615-.3633,0-.2314.0986-.4297.0986-.7598,0-.6924-.3301-1.1221-.8574-1.1221-1.4854,0-3.5977,3.3672-3.5977,8.2188,0,.957.165,1.4189.165,1.6826,0,.3965-.2646.5947-.6934.5947-.957,0-1.8486-.9902-1.8486-2.6074,0-1.4189.6279-5.2148.6279-6.6016,0-1.6826-.5947-2.0791-.5947-2.6074,0-.2969.2969-.4619.7598-.4619,1.1553,0,1.9141,1.2549,2.0127,3.334Z" fill="#1b2a2f"/>
      <path d="M106.7334,224.9883v-1.2871c0-2.6406-.5947-2.6738-.5947-3.0693,0-.3301.3301-.5615,1.0234-.5615.9902,0,1.9141,1.0566,1.9141,2.6738,0,1.1885-.0332,1.6172-.0332,2.7725,0,4.1582.8252,5.1152,1.585,5.1152.9902,0,2.9375-2.2441,2.9375-6.1055,0-2.8711-.9248-3.3662-.9248-3.7627,0-.5605.8584-.9902,1.4854-.9902,1.0889,0,1.6504,1.4854,1.6504,3.3008,0,3.3662-2.6074,9.2412-5.6104,9.2412-1.75,0-3.4326-1.2871-3.4326-7.3271Z" fill="#1b2a2f"/>
      <path d="M123.5947,226.9355c0-3.9277,2.6406-7.1621,5.9082-7.1621,1.9473,0,3.4648,1.2217,3.4648,3.2344,0,3.4326-4.2568,4.4229-7.0625,4.5215.2314,1.5518,1.0557,3.0371,3.0029,3.0371,2.707,0,3.4004-2.4092,3.6641-2.4092.0664,0,.4951.1318.4951.792,0,.8574-1.2539,3.4326-4.5547,3.4326-3.1357,0-4.918-2.2773-4.918-5.4463ZM125.8389,226.21c3.0039-.0996,5.083-1.2881,5.083-3.0371,0-1.0889-.7588-1.749-1.749-1.749-1.6504,0-3.2012,2.1123-3.334,4.7861Z" fill="#1b2a2f"/>
      <path d="M154.417,226.4736c-.9238,0-1.3525-.627-1.3525-1.3867,0-1.0557.6924-1.9795,1.6826-1.9795.8584,0,1.4521.5605,1.4521,1.5176,0,1.0898-.8906,1.8486-1.7822,1.8486Z" fill="#1b2a2f"/>
      <path d="M188.7061,232.3818c-2.7402,0-4.1592-5.875-6.502-8.0537h-.5947c-.4287,0-.9902-.0986-1.4189-.2305-.1318,1.6172-.2637,3.1348-.2637,4.2568,0,2.542.5273,2.7725.5273,3.1357,0,.4619-.8574.792-1.3857.792-.8916,0-1.6504-.6934-1.6504-3.0361,0-2.6406.5615-5.7432.5615-9.0107,0-3.0361-.2646-3.8613-.2646-4.3896,0-2.1777,4.4229-2.5742,5.6445-2.5742,3.6963,0,5.9736,2.1787,5.9736,4.8848,0,3.0039-1.8486,5.0166-4.7197,5.8086,1.4189,1.3867,2.5078,3.4326,3.6299,4.9512.5947.792,1.4199,1.3535,2.2119,1.3535.165,0,.2637.0322.2637.2969,0,1.0225-.9238,1.8154-2.0127,1.8154ZM183.0293,222.7773c1.8477-.3633,3.7949-1.4854,3.7949-4.1924,0-2.0459-1.6172-3.5312-4.0596-3.5312-.8252,0-1.6172.1982-2.3105.4951.0996.4951.1328,1.3203.1328,2.2119,0,1.4521-.1328,3.1348-.2646,4.8184.2314-.1318.4951-.2314.8916-.2314.6602,0,1.2539.165,1.8154.4297Z" fill="#1b2a2f"/>
      <path d="M205.6006,221.7539c.2969-1.2871.792-1.7158,1.1885-1.7158.7588,0,1.4189.9238,1.4189,2.6064,0,2.4424-.8252,4.4893-.8252,4.4893.0332,3.6631,1.7158,4.0928,1.7158,4.4883,0,.3301-.4287.5947-1.0225.5947-.9902,0-1.8818-.5615-2.377-2.1787-.792,1.2207-2.0127,2.3105-3.5977,2.3105-2.5742,0-3.5645-1.6172-3.5645-3.8945,0-1.4521.5283-3.8945.5283-5.3145,0-1.8477-.627-2.3096-.627-2.541,0-.2969.3301-.5605.8584-.5605,1.4844,0,2.1123,1.2539,2.1123,2.5078,0,1.3535-.6602,3.8291-.6602,5.5117,0,1.3867.4951,2.4756,1.7822,2.4756,1.0557,0,2.2109-1.0234,2.8047-2.6406-.0322-.4619-.0322-.957-.0322-1.5176,0-2.1787.0986-3.6309.2969-4.6211Z" fill="#1b2a2f"/>
      <path d="M219.4922,224.6914c.957-2.3438,2.5088-4.918,4.8848-4.918,1.749,0,2.6738,1.1885,2.6738,2.9375,0,1.6172-.6602,4.126-.6602,5.4463,0,3.0361,1.2871,2.8711,1.2871,3.2666,0,.4629-.5283.8916-1.2217.8916-1.6172,0-2.3096-1.584-2.3096-3.499,0-1.9141.6924-3.9268.6924-5.3789,0-1.2217-.4619-1.7168-1.0889-1.7168-1.8486,0-4.0928,3.8945-4.0928,8.8789,0,.4287.0332.7588.0332,1.0557,0,.4619-.0986.6934-.5283.6934-.9238,0-1.8145-.8584-1.8145-2.6074,0-2.9707.792-9.4062.792-12.5088,0-3.7295-.5947-4.0596-.5947-4.5879,0-.3301.3301-.5615.8252-.5615,1.3203,0,2.3438,1.0566,2.3438,2.8389,0,1.9473-.792,5.4131-1.2217,9.7695Z" fill="#1b2a2f"/>
      <path d="M235.4307,226.9355c0-3.9277,2.6406-7.1621,5.9082-7.1621,1.9473,0,3.4648,1.2217,3.4648,3.2344,0,3.4326-4.2568,4.4229-7.0625,4.5215.2314,1.5518,1.0557,3.0371,3.0029,3.0371,2.707,0,3.4004-2.4092,3.6641-2.4092.0664,0,.4951.1318.4951.792,0,.8574-1.2539,3.4326-4.5547,3.4326-3.1357,0-4.918-2.2773-4.918-5.4463ZM237.6748,226.21c3.0039-.0996,5.083-1.2881,5.083-3.0371,0-1.0889-.7588-1.749-1.749-1.749-1.6504,0-3.2012,2.1123-3.334,4.7861Z" fill="#1b2a2f"/>
      <path d="M266.2529,226.4736c-.9238,0-1.3525-.627-1.3525-1.3867,0-1.0557.6924-1.9795,1.6826-1.9795.8584,0,1.4521.5605,1.4521,1.5176,0,1.0898-.8906,1.8486-1.7822,1.8486Z" fill="#1b2a2f"/>
      <path d="M291.9268,224.0312c-.1328,1.6172-.2646,3.168-.2646,4.3896,0,.5605,0,1.0557.0996,1.4854.6602-.165,1.2539-.2314,1.9141-.2314.8906,0,2.4092.1318,3.2676.1318,1.9141,0,2.2109-.8574,2.5742-.8574.3301,0,.5605.627.5605,1.1221,0,1.0889-.6924,2.1455-2.3428,2.1455-1.8154,0-3.334-.4629-4.7197-.4629-1.0234,0-1.7822.2646-2.3105.2646-.8906,0-1.4521-.9902-1.4521-2.7725,0-2.6406.627-6.3369.627-10.5283,0-3.4658-.3955-3.7295-.3955-4.3242,0-.5938.4619-1.0225,1.1553-1.0225.6592,0,2.8379.3301,4.6533.3301,3.8613,0,4.0928-.4297,4.6201-.4297.165,0,.3301.2646.3301.5283,0,1.1885-.8906,2.2109-3.1016,2.2109-1.3203,0-3.3008-.1973-4.7197-.3955,0,.2637.0322.5605.0322.8906,0,1.585-.1973,3.6973-.3955,5.7764,5.875-.0996,6.1387-.9248,6.6338-.9248.2637,0,.4287.3301.4287.6602,0,1.3535-1.1553,2.1455-2.8379,2.1455-.8252,0-2.8389-.0332-4.3564-.1318Z" fill="#1b2a2f"/>
      <path d="M311.3311,223.1729c.957-1.8154,2.3105-3.3994,4.1914-3.3994,1.749,0,2.6738,1.1885,2.6738,2.9375,0,1.6172-.6934,4.126-.6934,5.4463,0,3.0361,1.2871,2.8711,1.2871,3.2666,0,.4629-.4951.8916-1.2217.8916-1.584,0-2.2773-1.584-2.2773-3.499,0-1.9141.6934-3.9268.6934-5.3789,0-1.2217-.4951-1.7168-1.0889-1.7168-1.8486,0-4.0928,3.9609-4.0928,8.7793,0,.5938.0332.8584.0332,1.1553,0,.5615-.1982.6934-.5615.6934-.8906,0-1.7822-.8584-1.7822-2.6074,0-1.4189.5947-5.2148.5947-6.6016,0-1.6826-.5615-2.0791-.5615-2.6074,0-.3291.3633-.4619.7588-.4619,1.0898,0,1.8486,1.2217,2.0469,3.1025Z" fill="#1b2a2f"/>
      <path d="M329.3818,216.0107c.0654-.3955.2305-.6924.4287-.6924.5615,0,1.3867.6924,1.3867,1.3857,0,.8252-.5615,2.3105-.8584,3.8281,1.749-.1318,2.7061-.7256,2.8711-.7256.2969,0,.5283.5283.5283,1.0557,0,1.1885-1.749,1.4531-3.7627,1.4531-.1982,1.4521-.3965,3.333-.3965,4.752,0,2.0791.4297,3.499,1.8818,3.499,1.2539,0,1.584-1.0898,1.8486-1.0898.2969,0,.3623.3633.3623.6279,0,1.0557-1.0225,2.2441-2.8047,2.2441-2.0469,0-3.4326-1.5186-3.4326-4.8848,0-1.749.1973-3.7295.3955-5.2812-.8574-.1973-1.3525-.6602-1.3525-.9902,0-.2305.1318-.3301.2637-.4287,1.2207-.7588,2.3438-2.9707,2.6406-4.7529Z" fill="#1b2a2f"/>
      <path d="M343.2412,227.4307c0,.165-.0664.3301-.0664.6602,0,1.4189.957,2.6738,2.5742,2.6738,1.2871,0,2.0801-.7598,2.0801-1.75,0-2.7061-5.7764-2.0791-5.7764-5.875,0-1.7822,1.4189-3.3662,3.8945-3.3662,1.8154,0,3.499,1.0889,3.499,2.6406,0,.8584-.6602,1.3857-1.3203,1.3857-.0996,0-.2646-.0654-.2969-.1973-.0664-1.6172-1.2881-2.2773-2.1787-2.2773-.9238,0-1.6172.627-1.6172,1.4189,0,2.376,5.875,1.8477,5.875,5.8418,0,2.1455-1.6836,3.7959-4.4229,3.7959s-4.291-1.585-4.291-3.499c0-1.0234.792-1.749,1.6172-1.749.2979,0,.4297.0986.4297.2969Z" fill="#1b2a2f"/>
      <path d="M360.4004,231.2588c-.1318,1.2881-.2305,2.6074-.2305,4.3896,0,2.377.5605,2.542.5605,2.8721,0,.2969-.3301.5605-.9238.5605-1.4199,0-2.0137-.8906-2.0137-2.0459,0-3.3008,1.0889-6.832,1.0889-13.9609,0-1.9141-.5273-2.2441-.5273-2.5742,0-.2646.1973-.4619.5605-.4619.9248,0,1.749.957,2.0137,2.2773,1.0234-1.6836,2.4756-2.542,3.8613-2.542,1.8818,0,3.7627,1.6172,3.7627,5.0166,0,3.9277-2.3438,7.5254-5.5781,7.5254-1.1553,0-2.0127-.4287-2.5742-1.0566ZM363.0742,230.665c2.0459,0,3.2998-2.6729,3.2998-5.4453,0-2.4102-.8906-3.5645-2.0459-3.5645-1.6172,0-3.2012,2.541-3.5312,5.8418h.0322c.1982,0,.1982.1318.1982.4951,0,1.3857.9902,2.6729,2.0469,2.6729Z" fill="#1b2a2f"/>
      <path d="M383.9961,230.2695c-.627,1.1221-1.7158,2.0459-3.3994,2.0459-1.9805,0-4.0264-1.3857-4.0264-4.918,0-4.0928,2.6738-7.624,5.9082-7.624,1.7158,0,3.2012.9902,3.2012,2.8389,0,.3623-.0664.6602-.1318.8906.4619.0332.6924.3301.6924,1.2871,0,1.1553-.3301,1.915-.3301,3.334,0,3.1025,1.5518,2.8057,1.5518,3.333,0,.3633-.3965.7266-1.0889.7266-1.1885,0-2.0137-.7598-2.377-1.9141ZM383.9961,224.7246c-.3301,0-.5605-.1982-.5605-.4619,0-.2646.2969-.5615.2969-1.3535,0-.9902-.627-1.4854-1.4189-1.4854-1.8486,0-3.5322,2.6074-3.5322,5.5449,0,2.376,1.0898,3.5645,2.3105,3.5645,1.4521,0,2.7725-1.584,2.9043-5.8086Z" fill="#1b2a2f"/>
      <path d="M398.416,223.1729c.957-1.8154,2.3105-3.3994,4.1914-3.3994,1.749,0,2.6738,1.1885,2.6738,2.9375,0,1.6172-.6934,4.126-.6934,5.4463,0,3.0361,1.2871,2.8711,1.2871,3.2666,0,.4629-.4951.8916-1.2217.8916-1.584,0-2.2773-1.584-2.2773-3.499,0-1.9141.6934-3.9268.6934-5.3789,0-1.2217-.4951-1.7168-1.0889-1.7168-1.8486,0-4.0928,3.9609-4.0928,8.7793,0,.5938.0332.8584.0332,1.1553,0,.5615-.1982.6934-.5615.6934-.8906,0-1.7822-.8584-1.7822-2.6074,0-1.4189.5947-5.2148.5947-6.6016,0-1.6826-.5615-2.0791-.5615-2.6074,0-.3291.3633-.4619.7588-.4619,1.0898,0,1.8486,1.2217,2.0469,3.1025Z" fill="#1b2a2f"/>
      <path d="M417.0947,223.1729c.957-1.8154,2.3105-3.3994,4.1914-3.3994,1.749,0,2.6738,1.1885,2.6738,2.9375,0,1.6172-.6934,4.126-.6934,5.4463,0,3.0361,1.2871,2.8711,1.2871,3.2666,0,.4629-.4951.8916-1.2217.8916-1.584,0-2.2773-1.584-2.2773-3.499,0-1.9141.6934-3.9268.6934-5.3789,0-1.2217-.4951-1.7168-1.0889-1.7168-1.8486,0-4.0928,3.9609-4.0928,8.7793,0,.5938.0332.8584.0332,1.1553,0,.5615-.1982.6934-.5615.6934-.8906,0-1.7822-.8584-1.7822-2.6074,0-1.4189.5947-5.2148.5947-6.6016,0-1.6826-.5615-2.0791-.5615-2.6074,0-.3291.3633-.4619.7588-.4619,1.0898,0,1.8486,1.2217,2.0469,3.1025Z" fill="#1b2a2f"/>
      <path d="M439.9971,221.7539c.2969-1.2871.792-1.7158,1.1885-1.7158.7588,0,1.4189.9238,1.4189,2.6064,0,2.4424-.8252,4.4893-.8252,4.4893.0332,3.6631,1.7158,4.0928,1.7158,4.4883,0,.3301-.4287.5947-1.0225.5947-.9902,0-1.8818-.5615-2.377-2.1787-.792,1.2207-2.0127,2.3105-3.5977,2.3105-2.5742,0-3.5645-1.6172-3.5645-3.8945,0-1.4521.5283-3.8945.5283-5.3145,0-1.8477-.627-2.3096-.627-2.541,0-.2969.3301-.5605.8584-.5605,1.4844,0,2.1123,1.2539,2.1123,2.5078,0,1.3535-.6602,3.8291-.6602,5.5117,0,1.3867.4951,2.4756,1.7822,2.4756,1.0557,0,2.2109-1.0234,2.8047-2.6406-.0322-.4619-.0322-.957-.0322-1.5176,0-2.1787.0986-3.6309.2969-4.6211Z" fill="#1b2a2f"/>
      <path d="M454.6152,223.1729c.957-1.8154,2.3105-3.3994,4.1914-3.3994,1.749,0,2.6738,1.1885,2.6738,2.9375,0,1.6172-.6934,4.126-.6934,5.4463,0,3.0361,1.2871,2.8711,1.2871,3.2666,0,.4629-.4951.8916-1.2217.8916-1.584,0-2.2773-1.584-2.2773-3.499,0-1.9141.6934-3.9268.6934-5.3789,0-1.2217-.4951-1.7168-1.0889-1.7168-1.8486,0-4.0928,3.9609-4.0928,8.7793,0,.5938.0332.8584.0332,1.1553,0,.5615-.1982.6934-.5615.6934-.8906,0-1.7822-.8584-1.7822-2.6074,0-1.4189.5947-5.2148.5947-6.6016,0-1.6826-.5615-2.0791-.5615-2.6074,0-.3291.3633-.4619.7588-.4619,1.0898,0,1.8486,1.2217,2.0469,3.1025Z" fill="#1b2a2f"/>
      <path d="M479.1348,231.9189c0,4.1592-1.749,7.1621-5.6768,7.1621-2.2119,0-3.9609-1.2539-3.9609-3.168,0-1.1885.8584-1.8818,1.7168-1.8818.3955,0,.6924.1328.6924.3301,0,.1328-.1318.2646-.1318.7598,0,1.5508.8916,2.4746,2.2119,2.4746,1.9141,0,3.1016-1.9473,3.1016-5.7422,0-.3965-.0322-.792-.0322-1.1221-.627.957-1.6836,1.584-3.1025,1.584-2.4756,0-4.0928-1.9473-4.0928-4.8848,0-4.0928,2.541-7.6572,5.8418-7.6572,1.9473,0,3.3994,1.2539,3.3994,2.7725,0,.3633-.0664.6602-.165.9238.2314.1982.3965.5947.3965,1.2549,0,1.2207-.1328,1.9805-.4297,3.0693.0664.7256.2314,2.8057.2314,4.125ZM476.9893,224.8232c-.2637-.0332-.3955-.165-.3955-.3633,0-.4287.3623-.4951.3623-1.749,0-.7256-.627-1.2871-1.4521-1.2871-1.8809,0-3.4326,2.6074-3.4326,5.5449,0,1.9141.8584,3.5645,2.377,3.5645,1.0557,0,2.0127-.8916,2.4424-2.4424-.0332-.3965-.0664-1.0234-.0664-1.4854,0-.792.0664-1.3857.165-1.7822Z" fill="#1b2a2f"/>
    </g>
  </g>
  <g id="d" data-name="Sonne">
    <path d="M311.5461.7601v127.5413h-123.0921V.7601h123.0921ZM248.4136,19.7024c-.3586.3647.3893,9.0314.5218,10.2858,1.5929,1.7358,3.7964.8346,5.1214-.7009.9018-1.0451.1922-1.365.0566-2.3089-.1931-1.3441-.4797-6.6801-1.4508-7.2458-.2029-.1182-1.968-.7899-2.1825-.8109-.7734-.0758-.5279.4432-.9003.6005-.3309.1397-1.1245.1379-1.1662.1802ZM234.8889,43.6034c.3332-.462-1.2916-1.4257-1.6025-1.7345-1.5296-1.5191-2.8284-3.2313-4.4095-4.7462-1.2661-1.2131-6.6153-5.7269-8.1001-5.7386-.1875-.0015-.2214.5621-.4873.7739-.9696.772-1.3164-.0174-1.0592,2.0421.2469,1.9766,3.1675,4.8386,4.6287,6.2665,1.3948,1.3631,7.1444,6.4261,8.9055,6.1476l1.8785-2.1376-.9819-.6188,1.2278-.2544ZM272.3966,46.5091c1.5011-1.306,1.5647-3.432,2.4383-4.6266,1.1276-1.5421,4.2676-3.2567,5.4685-5.167.7473-1.1887,1.1292-2.7071.2946-3.9623-.5601-.388-2.8741.5991-3.5363.9249-.5972.2938-1.8119.6662-1.3865,1.4563-1.4607-.2754-2.5227.5897-3.5686,1.4909-2.0519,1.7681-5.3203,6.7593-4.4922,9.5486.4702,1.5839,3.6226,1.3441,4.7822.3352ZM256.2664,44.6007c-1.0637-.0614-2.2104.1224-3.26-.0571-2.1554-.3687-3.4541-2.4538-5.4601.2388-3.1963-1.639-6.8124.8936-8.6035,3.5559-.2116.0983.1686-.7838-.8498-.3642-2.5073,1.0331-5.7468,7.2808-6.4611,9.8904-4.4218,16.1536,10.7571,33.2053,26.6036,24.4819,3.621-1.9934,6.3935-3.6591,8.3945-7.4316,5.9942-11.3009,1.6508-24.7636-10.3356-29.0938l-.0278-1.2203ZM216.3082,62.6922c-.1659-.1355-.2425-.4512-.488-.6127-2.5548-1.6801-8.3852-1.9746-9.3182,1.6984-.1423.5603.4547,2.82.7495,3.2417,1.1288,1.615,8.0848-1.2218,9.934-.2515,1.2396-2.3888.9934-2.5479-.8773-4.0761ZM291.5561,62.3821c-1.4545-1.0308-3.1337-1.6909-4.9412-1.5865-.8202.0474-3.1806.6133-3.6765,1.2598-.3768.4911-.9621,2.4042-.8338,3.0395.6762,3.3482,9.2702,2.3492,11.2195.5176l-.0813-1.8308c-.6005-.3037-1.2529-1.0922-1.6865-1.3995ZM277.2395,96.3215c.5286.3809,2.6237,1.7165,3.0967,1.4778,2.2465-2.008,1.9572-2.2059.4529-4.451-1.9609-2.9264-6.8449-7.7406-9.6662-9.8788-.748-.5669-1.1433-1.1516-2.1432-.9548-1.8607.3661-1.1858,2.3329-2.3621,3.6058l.0768.3248c2.5336,2.0704,4.6055,4.6674,7.0116,6.8606.9378.8548,2.5578,2.3126,3.5336,3.0157ZM227.4343,85.1148c-.9932.6352-1.8975.0764-2.1385.2126-.1929.109-.6852,1.154-.9762,1.4924-2.6328,3.0608-6.3412,5.0902-5.0423,9.8564.2744,1.0069.9421,1.2417,1.9796,1.2346,2.3692-.0162,3.9044-4.3074,5.3998-5.9812,1.677-1.877,6.7257-4.9986,6.2715-7.8318-.2189-1.3655-2.0107-1.2276-3.0116-.8191-.9297.3795-1.7523,1.3692-2.4823,1.8361ZM248.4628,109.8083c.7408.6498,4.1778.4658,4.3557-1.068-.353-2.622.1971-7.5619-1.1639-9.7651-.7285-1.1793-3.2177-.5692-3.9956.2985-.8689.9691-.588,3.9011-.4542,5.2072.0876.855.7962,4.9223,1.258,5.3273Z" fill="none"/>
    <path d="M256.2664,44.6007l.0278,1.2203c11.9864,4.3302,16.3298,17.7928,10.3356,29.0938-2.001,3.7725-4.7735,5.4382-8.3945,7.4316-15.8464,8.7234-31.0254-8.3283-26.6036-24.4819.7143-2.6096,3.9538-8.8573,6.4611-9.8904,1.0184-.4196.6381.4625.8498.3642,1.7911-2.6622,5.4072-5.1949,8.6035-3.5559,2.0061-2.6926,3.3047-.6075,5.4601-.2388,1.0497.1796,2.1963-.0043,3.26.0571ZM256.9101,51.1796c-8.7052-3.8226-19.7822,2.3529-20.0611,12.2435-.0299,1.0598.9439,2.8548.0049,3.4985-.1969.135-1.0432-.3955-.7334.2215.2275.453,1.3057,1.2213,1.712,1.753.9765,1.2779,1.7241,2.717,1.2354,4.352l1.2092.0198.0189,1.4744,1.4722-.246c-.5501,2.2457.5159,2.5141,2.4607,2.7417-.6384,1.2553.7244,1.6823,1.7222,2.1096,12.0628,5.1662,22.969-9.8428,18.5405-21.0399-1.4154-3.5789-4.2565-5.668-7.5814-7.128Z" fill="#1b2a2f"/>
    <path d="M234.8889,43.6034l-1.2278.2544.9819.6188-1.8785,2.1376c-1.7611.2784-7.5107-4.7846-8.9055-6.1476-1.4611-1.4279-4.3818-4.2898-4.6287-6.2665-.2572-2.0595.0896-1.2701,1.0592-2.0421.2659-.2117.2998-.7754.4873-.7739,1.4848.0117,6.834,4.5255,8.1001,5.7386,1.581,1.5149,2.8798,3.227,4.4095,4.7462.311.3088,1.9358,1.2725,1.6025,1.7345Z" fill="#1b2a2f"/>
    <path d="M272.3966,46.5091c-1.1596,1.0089-4.312,1.2487-4.7822-.3352-.8281-2.7893,2.4403-7.7805,4.4922-9.5486,1.0458-.9012,2.1079-1.7663,3.5686-1.4909-.4254-.7901.7893-1.1625,1.3865-1.4563.6623-.3258,2.9762-1.3129,3.5363-.9249.8346,1.2553.4527,2.7737-.2946,3.9623-1.2009,1.9103-4.3409,3.6249-5.4685,5.167-.8736,1.1946-.9372,3.3206-2.4383,4.6266Z" fill="#1b2a2f"/>
    <path d="M277.2395,96.3215c-.9757-.7031-2.5957-2.1609-3.5336-3.0157-2.4061-2.1932-4.4781-4.7901-7.0116-6.8606l-.0768-.3248c1.1763-1.2729.5014-3.2397,2.3621-3.6058.9999-.1967,1.3952.3879,2.1432.9548,2.8213,2.1382,7.7053,6.9524,9.6662,9.8788,1.5043,2.245,1.7936,2.443-.4529,4.451-.4731.2387-2.5681-1.0969-3.0967-1.4778Z" fill="#1b2a2f"/>
    <path d="M227.4343,85.1148c.73-.4669,1.5526-1.4566,2.4823-1.8361,1.0008-.4085,2.7927-.5463,3.0116.8191.4542,2.8332-4.5945,5.9547-6.2715,7.8318-1.4954,1.6738-3.0305,5.9649-5.3998,5.9812-1.0375.0071-1.7052-.2276-1.9796-1.2346-1.2989-4.7663,2.4095-6.7956,5.0423-9.8564.2911-.3384.7834-1.3834.9762-1.4924.241-.1362,1.1453.4226,2.1385-.2126Z" fill="#1b2a2f"/>
    <path d="M216.3082,62.6922c1.8707,1.5281,2.1169,1.6873.8773,4.0761-1.8492-.9704-8.8052,1.8664-9.934.2515-.2948-.4217-.8918-2.6815-.7495-3.2417.9329-3.6731,6.7634-3.3786,9.3182-1.6984.2455.1614.3221.4772.488.6127Z" fill="#1b2a2f"/>
    <path d="M248.4136,19.7024c.0416-.0423.8353-.0405,1.1662-.1802.3725-.1573.1269-.6763.9003-.6005.2145.021,1.9797.6927,2.1825.8109.9711.5658,1.2577,5.9017,1.4508,7.2458.1356.9439.8452,1.2637-.0566,2.3089-1.325,1.5356-3.5285,2.4367-5.1214.7009-.1326-1.2545-.8805-9.9212-.5218-10.2858Z" fill="#1b2a2f"/>
    <path d="M291.5561,62.3821c.4337.3073,1.0861,1.0958,1.6865,1.3995l.0813,1.8308c-1.9493,1.8315-10.5433,2.8306-11.2195-.5176-.1283-.6353.4571-2.5484.8338-3.0395.4959-.6464,2.8564-1.2124,3.6765-1.2598,1.8076-.1044,3.4868.5557,4.9412,1.5865Z" fill="#1b2a2f"/>
    <path d="M248.4628,109.8083c-.4618-.4051-1.1704-4.4723-1.258-5.3273-.1338-1.3061-.4147-4.2381.4542-5.2072.7779-.8677,3.2671-1.4779,3.9956-.2985,1.3609,2.2032.8109,7.143,1.1639,9.7651-.1779,1.5339-3.6149,1.7179-4.3557,1.068Z" fill="#1b2a2f"/>
    <path d="M256.9101,51.1796c3.3248,1.46,6.1659,3.5491,7.5814,7.128,4.4285,11.1972-6.4778,26.2062-18.5405,21.0399-.9977-.4273-2.3606-.8543-1.7222-2.1096-1.9448-.2276-3.0108-.4959-2.4607-2.7417l-1.4722.246-.0189-1.4744-1.2092-.0198c.4887-1.6351-.2589-3.0742-1.2354-4.352-.4063-.5317-1.4845-1.3-1.712-1.753-.3098-.6169.5365-.0865.7334-.2215.939-.6437-.0347-2.4387-.0049-3.4985.2789-9.8905,11.3559-16.0661,20.0611-12.2435Z" fill="none"/>
  </g>
</svg>